<svg width="32" height="32" viewBox="0 0 32 32" fill="none" xmlns="http://www.w3.org/2000/svg">
<path d="M22.6666 2.53324H19.2133C18.3451 2.4845 17.4766 2.62255 16.6663 2.93807C15.856 3.2536 15.1228 3.73926 14.5162 4.36229C13.9096 4.98532 13.4437 5.73122 13.1499 6.54965C12.8562 7.36808 12.7414 8.24 12.8133 9.10658V12.1199H9.33329C9.19058 12.1199 9.05352 12.1756 8.95137 12.2753C8.84923 12.3749 8.7901 12.5106 8.78662 12.6532V17.0399C8.78662 17.1849 8.84422 17.3239 8.94674 17.4265C9.04926 17.529 9.1883 17.5866 9.33329 17.5866H12.8133V28.6532C12.8133 28.7244 12.8275 28.7949 12.8551 28.8605C12.8828 28.9261 12.9232 28.9855 12.9742 29.0352C13.0251 29.0849 13.0855 29.1239 13.1518 29.1499C13.218 29.1759 13.2888 29.1884 13.36 29.1866H17.8933C18.036 29.1866 18.1731 29.1309 18.2752 29.0312C18.3773 28.9315 18.4365 28.7959 18.44 28.6532V17.5866H22.44C22.5111 17.5866 22.5816 17.5724 22.6472 17.5447C22.7128 17.5171 22.7722 17.4766 22.8219 17.4257C22.8716 17.3747 22.9106 17.3144 22.9366 17.2481C22.9626 17.1819 22.9751 17.1111 22.9733 17.0399V12.6532C22.9706 12.5113 22.9188 12.3746 22.8266 12.2666C22.7198 12.1724 22.5824 12.1202 22.44 12.1199H18.44V9.54658C18.44 8.31991 18.7333 7.69324 20.3333 7.69324H22.6666C22.8105 7.68986 22.9476 7.63117 23.0494 7.52938C23.1512 7.42758 23.2099 7.2905 23.2133 7.14658V3.07991C23.2133 2.93492 23.1557 2.79588 23.0532 2.69336C22.9507 2.59084 22.8116 2.53324 22.6666 2.53324Z" fill="#3B3F51"/>
</svg>
