<svg width="32" height="32" viewBox="0 0 32 32" fill="none" xmlns="http://www.w3.org/2000/svg">
<path d="M28.5868 10.3999C28.5747 9.29896 28.3763 8.20801 28.0002 7.17324C27.6881 6.28959 27.1876 5.48434 26.5335 4.81324C25.911 4.14089 25.1455 3.6169 24.2935 3.27991C23.318 2.8874 22.2782 2.67943 21.2268 2.66658C19.8935 2.59991 19.4402 2.57324 16.0002 2.57324C12.5602 2.57324 12.1335 2.66658 10.7868 2.66658C9.73527 2.68966 8.69647 2.90194 7.72016 3.29324C6.86524 3.62581 6.09539 4.14512 5.46683 4.81324C4.81919 5.48427 4.31953 6.28371 4.00016 7.15991C3.62524 8.19501 3.42693 9.28575 3.4135 10.3866C3.4135 11.8132 3.3335 12.2666 3.3335 15.8666C3.3335 19.4666 3.3335 19.8666 3.40016 21.3466C3.4299 22.4469 3.63237 23.5358 4.00016 24.5732C4.32244 25.452 4.82162 26.2552 5.46683 26.9332C6.09164 27.6029 6.85648 28.1264 7.70683 28.4666C8.68741 28.8575 9.73132 29.0653 10.7868 29.0799C12.1202 29.1466 12.5602 29.1599 16.0002 29.1599C19.4402 29.1599 19.8668 29.1599 21.2135 29.0799C22.2692 29.0668 23.3133 28.8589 24.2935 28.4666C25.1477 28.1105 25.9185 27.5804 26.5566 26.9101C27.1948 26.2398 27.6864 25.4439 28.0002 24.5732C28.3648 23.5308 28.5628 22.4374 28.5868 21.3332C28.5868 19.9199 28.5868 19.4666 28.5868 15.8532C28.5868 12.2399 28.6535 11.8132 28.5868 10.3999ZM26.3068 21.2532C26.3009 22.0933 26.1568 22.9267 25.8802 23.7199C25.6731 24.2835 25.3518 24.7982 24.9366 25.2318C24.5213 25.6655 24.0209 26.0087 23.4668 26.2399C22.7199 26.5367 21.9239 26.6905 21.1202 26.6932C19.7868 26.7599 19.3868 26.7732 16.0135 26.7732C12.6402 26.7732 12.2268 26.7732 10.8935 26.6932C10.0898 26.6905 9.29373 26.5367 8.54683 26.2399C7.9931 26.0269 7.49583 25.6893 7.0935 25.2532C6.6697 24.8174 6.34656 24.2941 6.14683 23.7199C5.87151 22.9259 5.72303 22.0935 5.70683 21.2532C5.70683 19.9199 5.70683 19.4266 5.70683 15.9199C5.70683 12.4132 5.70683 11.9199 5.70683 10.5866C5.7074 9.70578 5.85615 8.83136 6.14683 7.99991C6.34659 7.4344 6.66369 6.91753 7.07731 6.48322C7.49093 6.04892 7.99173 5.707 8.54683 5.47991C9.30283 5.20354 10.1019 5.06359 10.9068 5.06658C12.2402 5.06658 12.6402 5.06658 16.0135 5.06658C19.3868 5.06658 19.8002 5.06658 21.1335 5.06658C21.9372 5.08193 22.7318 5.23994 23.4802 5.53324C24.0317 5.75038 24.5281 6.0874 24.9335 6.51991C25.3518 6.93944 25.6747 7.44425 25.8802 7.99991C26.1568 8.79314 26.3009 9.62651 26.3068 10.4666C26.3735 11.7999 26.3868 12.2799 26.3868 15.7999C26.3868 19.3199 26.3735 19.8399 26.3068 21.2532Z" fill="#3B3F51"/>
<path d="M16 9.04004C15.1245 9.06251 14.2619 9.25729 13.4616 9.61325C12.6614 9.96921 11.9391 10.4794 11.3361 11.1146C10.7331 11.7498 10.2611 12.4976 9.94723 13.3153C9.63334 14.133 9.48365 15.0045 9.50671 15.88C9.47445 17.6392 10.1389 19.3398 11.3553 20.6111C12.5716 21.8823 14.2412 22.6213 16 22.6667C16.8756 22.6459 17.7385 22.4529 18.5394 22.0985C19.3403 21.7442 20.0635 21.2355 20.6678 20.6015C21.272 19.9675 21.7455 19.2207 22.061 18.4037C22.3765 17.5867 22.528 16.7156 22.5067 15.84C22.5425 14.0763 21.8778 12.3704 20.6582 11.0958C19.4386 9.82125 17.7636 9.08201 16 9.04004ZM16 20.3067C14.8554 20.2753 13.7697 19.792 12.9802 18.9626C12.1907 18.1331 11.7616 17.0249 11.7867 15.88C11.758 14.7329 12.1855 13.6213 12.9754 12.7889C13.7652 11.9565 14.853 11.4715 16 11.44C16.5692 11.4539 17.13 11.5797 17.6504 11.8104C18.1709 12.041 18.6408 12.372 19.0333 12.7843C19.4258 13.1966 19.7333 13.6822 19.938 14.2134C20.1428 14.7446 20.2409 15.3109 20.2267 15.88C20.2518 17.0271 19.8209 18.1373 19.0285 18.9672C18.2362 19.797 17.1471 20.2787 16 20.3067Z" fill="#3B3F51"/>
<path d="M24.2802 8.77343C24.2672 9.07087 24.1671 9.35793 23.9923 9.59897C23.8175 9.84001 23.5758 10.0244 23.2972 10.1293C23.0186 10.2342 22.7153 10.255 22.4249 10.189C22.1346 10.123 21.87 9.97325 21.6641 9.75826C21.4581 9.54327 21.3198 9.27253 21.2664 8.97964C21.2129 8.68675 21.2467 8.38461 21.3634 8.11073C21.4802 7.83685 21.6748 7.60328 21.9231 7.43903C22.1714 7.27477 22.4625 7.18705 22.7602 7.18677C23.1717 7.19726 23.5623 7.3699 23.847 7.66709C24.1317 7.96428 24.2874 8.36194 24.2802 8.77343Z" fill="#3B3F51"/>
</svg>
