<svg width="32" height="32" viewBox="0 0 32 32" fill="none" xmlns="http://www.w3.org/2000/svg">
<path d="M26.6665 10.56C26.6665 10.8 26.6665 11.0267 26.6665 11.2667C26.6826 13.3197 26.2894 15.3553 25.5099 17.2546C24.7305 19.1539 23.5804 20.8788 22.1268 22.3287C20.6732 23.7785 18.9453 24.9242 17.044 25.6988C15.1427 26.4734 13.1061 26.8614 11.0532 26.84C8.07825 26.8437 5.16574 25.987 2.6665 24.3734C3.10882 24.4281 3.55415 24.4548 3.99984 24.4534C6.4651 24.4533 8.85923 23.6271 10.7998 22.1067C9.65666 22.0866 8.5484 21.7094 7.63028 21.028C6.71217 20.3466 6.03018 19.3951 5.67984 18.3067C6.01773 18.3759 6.36161 18.4116 6.7065 18.4134C7.19361 18.4161 7.67858 18.3487 8.1465 18.2134C6.9133 17.9649 5.80355 17.2986 5.00443 16.327C4.20531 15.3555 3.76573 14.138 3.75984 12.88V12.7867C4.52008 13.2088 5.37063 13.442 6.23984 13.4667C5.48692 12.9707 4.86873 12.2958 4.44059 11.5023C4.01245 10.7089 3.78772 9.82163 3.7865 8.92004C3.78586 7.9518 4.03869 7.00026 4.51984 6.16004C5.89311 7.85192 7.60728 9.23565 9.55075 10.2212C11.4942 11.2067 13.6235 11.7719 15.7998 11.88C15.5162 10.7032 15.6312 9.46556 16.1268 8.36115C16.6224 7.25674 17.4706 6.34806 18.5382 5.77762C19.6059 5.20718 20.8327 5.00724 22.0263 5.20917C23.2198 5.4111 24.3126 6.00346 25.1332 6.89337C26.3611 6.65212 27.5384 6.20108 28.6132 5.56004C28.2048 6.82951 27.3465 7.90594 26.1998 8.5867C27.2799 8.45433 28.3352 8.16693 29.3332 7.73337C28.6151 8.82327 27.7128 9.77978 26.6665 10.56Z" fill="#3B3F51"/>
</svg>
